<svg xmlns="http://www.w3.org/2000/svg"  height="23.607" viewBox="0 0 26 24">
  <g id="Group_9730" data-name="Group 9730" transform="translate(-82.443 -279.025)">
    <g id="Group_9018" data-name="Group 9018" transform="translate(92.753 282)">
      <g id="Sesamy_Logotype_White" transform="translate(0 0)">
        <g id="Group_8469" data-name="Group 8469" transform="translate(23.744 2.576)" opacity="0">
          <path id="Path_16985" data-name="Path 16985" d="M416.685,343.563a2.878,2.878,0,0,0-1.734-.493,4.112,4.112,0,0,0-.842.085,2.223,2.223,0,0,0-.736.287,1.509,1.509,0,0,0-.514.534,1.659,1.659,0,0,0-.193.835,1.061,1.061,0,0,0,.277.764,2.072,2.072,0,0,0,.743.479,6.149,6.149,0,0,0,1.05.307c.39.08.787.17,1.193.264s.8.206,1.193.335a3.979,3.979,0,0,1,1.05.521,2.5,2.5,0,0,1,.743.828,2.906,2.906,0,0,1-.087,2.649,3.01,3.01,0,0,1-.936.943,4.028,4.028,0,0,1-1.277.527,6.289,6.289,0,0,1-1.406.165,6.006,6.006,0,0,1-1.621-.213,4.012,4.012,0,0,1-1.342-.649,3.062,3.062,0,0,1-.913-1.115,3.57,3.57,0,0,1-.335-1.605h1.284a2.219,2.219,0,0,0,.906,1.871,2.742,2.742,0,0,0,.949.443,4.316,4.316,0,0,0,1.115.142,5.052,5.052,0,0,0,.922-.085,2.67,2.67,0,0,0,.835-.294,1.643,1.643,0,0,0,.6-.564,1.679,1.679,0,0,0,.229-.913,1.282,1.282,0,0,0-.277-.858,2.053,2.053,0,0,0-.743-.534,5.383,5.383,0,0,0-1.05-.335c-.39-.085-.789-.174-1.193-.264s-.8-.195-1.193-.314a4.35,4.35,0,0,1-1.05-.47,2.255,2.255,0,0,1-.743-.757,2.227,2.227,0,0,1-.277-1.163,2.71,2.71,0,0,1,.314-1.335,2.753,2.753,0,0,1,.835-.929,3.74,3.74,0,0,1,1.186-.544,5.219,5.219,0,0,1,1.365-.179,5.444,5.444,0,0,1,1.456.186,3.326,3.326,0,0,1,1.179.585,2.837,2.837,0,0,1,.8,1.007,3.582,3.582,0,0,1,.321,1.449h-1.284A2.144,2.144,0,0,0,416.685,343.563Z" transform="translate(-411 -341.93)" fill="#fff"/>
          <path id="Path_16986" data-name="Path 16986" d="M457.688,342.972v1.142h-5.683v3.24h5.3V348.5h-5.3v3.527h5.726v1.142H450.65v-10.2h7.038Z" transform="translate(-441.557 -342.732)" fill="#fff"/>
          <path id="Path_16987" data-name="Path 16987" d="M490.345,343.563a2.878,2.878,0,0,0-1.734-.493,4.111,4.111,0,0,0-.842.085,2.223,2.223,0,0,0-.736.287,1.509,1.509,0,0,0-.514.534,1.658,1.658,0,0,0-.193.835,1.06,1.06,0,0,0,.277.764,2.072,2.072,0,0,0,.743.479,6.15,6.15,0,0,0,1.05.307c.39.08.787.17,1.193.264s.8.206,1.193.335a3.98,3.98,0,0,1,1.05.521,2.5,2.5,0,0,1,.743.828,2.906,2.906,0,0,1-.087,2.649,3.01,3.01,0,0,1-.936.943,4.027,4.027,0,0,1-1.277.527,6.288,6.288,0,0,1-1.406.165,6.006,6.006,0,0,1-1.621-.213,4.01,4.01,0,0,1-1.342-.649,3.061,3.061,0,0,1-.913-1.115,3.57,3.57,0,0,1-.335-1.605h1.284a2.219,2.219,0,0,0,.906,1.871,2.743,2.743,0,0,0,.949.443,4.315,4.315,0,0,0,1.115.142,5.052,5.052,0,0,0,.922-.085,2.668,2.668,0,0,0,.835-.294,1.642,1.642,0,0,0,.6-.564,1.678,1.678,0,0,0,.229-.913,1.281,1.281,0,0,0-.278-.858,2.053,2.053,0,0,0-.743-.534,5.38,5.38,0,0,0-1.05-.335c-.39-.085-.789-.174-1.193-.264s-.8-.195-1.193-.314a4.349,4.349,0,0,1-1.05-.47,2.254,2.254,0,0,1-.743-.757,2.226,2.226,0,0,1-.277-1.163,2.71,2.71,0,0,1,.314-1.335,2.754,2.754,0,0,1,.835-.929,3.741,3.741,0,0,1,1.186-.544,5.219,5.219,0,0,1,1.365-.179,5.444,5.444,0,0,1,1.456.186,3.325,3.325,0,0,1,1.179.585,2.838,2.838,0,0,1,.8,1.007,3.581,3.581,0,0,1,.321,1.449h-1.284A2.152,2.152,0,0,0,490.345,343.563Z" transform="translate(-467.768 -341.93)" fill="#fff"/>
          <path id="Path_16988" data-name="Path 16988" d="M526.03,342.98l3.983,10.2h-1.5l-1.115-3.071h-4.311l-1.142,3.071H520.56l3.97-10.2Zm.943,5.983-1.7-4.754h-.028l-1.727,4.754Z" transform="translate(-495.435 -342.739)" fill="#fff"/>
          <path id="Path_16989" data-name="Path 16989" d="M566.641,342.98l3.213,8.568,3.227-8.568h1.855v10.2h-1.284V344.7h-.028l-3.183,8.481h-1.156L566.1,344.7h-.027v8.481H564.79v-10.2Z" transform="translate(-529.521 -342.739)" fill="#fff"/>
          <path id="Path_16990" data-name="Path 16990" d="M618.448,353.184H617.09v-4.169l-3.94-6.025h1.615l3.055,4.855,2.984-4.855h1.541l-3.9,6.025v4.169Z" transform="translate(-566.791 -342.747)" fill="#fff"/>
        </g>
        <g id="Sesamy_symbol_white_RGB" transform="translate(-10.309 -2.975)">
          <g id="Group_8998" data-name="Group 8998" transform="translate(4.204)">
            <path id="Path_17242" data-name="Path 17242" d="M53.233,1.18H34.79a.59.59,0,0,1,0-1.18H53.233a.59.59,0,1,1,0,1.18Z" transform="translate(-34.2)" fill="#fff"/>
          </g>
          <g id="Group_8999" data-name="Group 8999" transform="translate(6.889 9.076)">
            <path id="Path_17243" data-name="Path 17243" d="M69.7,79.311a.616.616,0,0,1-.186-.03L56.442,74.969a.59.59,0,0,1,.37-1.121l13.075,4.313a.59.59,0,0,1-.186,1.151Z" transform="translate(-56.038 -73.818)" fill="#fff"/>
          </g>
          <g id="Group_9000" data-name="Group 9000" transform="translate(0 2.378)">
            <path id="Path_17244" data-name="Path 17244" d="M19.776,22.511a.532.532,0,0,1-.061,0L.534,20.52a.59.59,0,0,1,.122-1.174l19.181,1.987a.591.591,0,0,1-.06,1.178Z" transform="translate(-0.005 -19.343)" fill="#fff"/>
          </g>
          <g id="Group_9001" data-name="Group 9001" transform="translate(2.363 5.234)">
            <path id="Path_17245" data-name="Path 17245" d="M33.947,46.46a.585.585,0,0,1-.112-.011L19.7,43.738a.59.59,0,0,1,.223-1.159L34.058,45.29a.591.591,0,0,1-.111,1.171Z" transform="translate(-19.223 -42.569)" fill="#fff"/>
          </g>
          <g id="Group_9002" data-name="Group 9002" transform="translate(4.136 22.427)">
            <path id="Path_17246" data-name="Path 17246" d="M34.23,182.4H52.673a.59.59,0,0,1,0,1.18H34.23a.59.59,0,0,1,0-1.18Z" transform="translate(-33.64 -182.4)" fill="#fff"/>
          </g>
          <g id="Group_9003" data-name="Group 9003" transform="translate(7.671 18.09)">
            <path id="Path_17247" data-name="Path 17247" d="M62.984,147.13a.532.532,0,0,1,.061,0l19.181,1.987a.59.59,0,1,1-.122,1.174l-19.181-1.987a.591.591,0,0,1,.06-1.178Z" transform="translate(-62.395 -147.13)" fill="#fff"/>
          </g>
          <g id="Group_9004" data-name="Group 9004" transform="translate(10.355 14.48)">
            <path id="Path_17248" data-name="Path 17248" d="M84.813,117.77a.582.582,0,0,1,.112.011l14.135,2.711a.59.59,0,0,1-.223,1.159L84.7,118.939a.59.59,0,0,1,.111-1.169Z" transform="translate(-84.223 -117.77)" fill="#fff"/>
          </g>
        </g>
      </g>
    </g>
  </g>
</svg>