<?xml version="1.0" encoding="utf-8"?>
<!-- Generator: Adobe Illustrator 26.5.0, SVG Export Plug-In . SVG Version: 6.00 Build 0)  -->
<svg version="1.1" id="Layer_1" xmlns="http://www.w3.org/2000/svg" xmlns:xlink="http://www.w3.org/1999/xlink" x="0px" y="0px"
	 viewBox="0 0 968.33 192" style="enable-background:new 0 0 968.33 192;" xml:space="preserve">
<style type="text/css">
	.st0{fill:#FFFFFF;}
</style>
<g>
	<path class="st0" d="M189,9.6H39c-2.65,0-4.8-2.15-4.8-4.8S36.35,0,39,0h150c2.65,0,4.8,2.15,4.8,4.8S191.65,9.6,189,9.6z"/>
</g>
<g>
	<path class="st0" d="M167.17,118.5c-0.5,0-1-0.08-1.51-0.24L59.33,83.18c-2.51-0.83-3.88-3.54-3.05-6.06s3.52-3.89,6.06-3.06
		l106.34,35.08c2.51,0.83,3.88,3.54,3.05,6.06C171.06,117.22,169.18,118.5,167.17,118.5z"/>
</g>
<g>
	<path class="st0" d="M160.81,45.11c-0.16,0-0.33-0.01-0.5-0.03l-156-16.16c-2.64-0.28-4.55-2.63-4.28-5.27
		c0.28-2.64,2.65-4.56,5.27-4.28l156,16.16c2.64,0.28,4.55,2.63,4.28,5.27C165.32,43.27,163.23,45.11,160.81,45.11z"/>
</g>
<g>
	<path class="st0" d="M138.98,74.22c-0.3,0-0.6-0.03-0.91-0.09L23.12,52.08c-2.61-0.5-4.31-3.01-3.81-5.62
		c0.5-2.6,3.02-4.29,5.62-3.81L139.88,64.7c2.61,0.5,4.31,3.01,3.81,5.62C143.24,72.62,141.23,74.22,138.98,74.22z"/>
</g>
<g>
	<path class="st0" d="M38.44,182.4h150c2.65,0,4.8,2.15,4.8,4.8s-2.15,4.8-4.8,4.8h-150c-2.65,0-4.8-2.15-4.8-4.8
		S35.79,182.4,38.44,182.4z"/>
</g>
<g>
	<path class="st0" d="M67.19,147.13c0.16,0,0.33,0.01,0.5,0.03l156,16.16c2.64,0.28,4.55,2.63,4.28,5.27
		c-0.28,2.64-2.65,4.56-5.27,4.28l-156-16.16c-2.64-0.28-4.55-2.63-4.28-5.27C62.68,148.97,64.77,147.13,67.19,147.13z"/>
</g>
<g>
	<path class="st0" d="M89.02,117.77c0.3,0,0.6,0.03,0.91,0.09l114.96,22.05c2.61,0.5,4.31,3.01,3.81,5.62
		c-0.5,2.6-3.02,4.29-5.62,3.81L88.12,127.28c-2.61-0.5-4.31-3.01-3.81-5.62C84.76,119.37,86.77,117.77,89.02,117.77z"/>
</g>
<g>
	<path class="st0" d="M359.37,51.39c-5.52-4-12.57-6.02-21.17-6.02c-3.5,0-6.92,0.34-10.28,1.04c-3.36,0.7-6.36,1.85-8.99,3.5
		c-2.6,1.62-4.7,3.81-6.27,6.53c-1.57,2.74-2.35,6.13-2.35,10.19c0,3.84,1.12,6.95,3.39,9.33c2.27,2.38,5.29,4.34,9.07,5.85
		c3.78,1.51,8.04,2.77,12.83,3.75c4.76,0.98,9.61,2.07,14.56,3.22c4.93,1.18,9.8,2.52,14.56,4.09c4.76,1.57,9.05,3.7,12.83,6.36
		c3.78,2.69,6.81,6.05,9.07,10.11c2.27,4.06,3.39,9.19,3.39,15.35c0,6.64-1.48,12.29-4.45,17c-2.97,4.7-6.78,8.54-11.43,11.51
		c-4.65,2.97-9.86,5.12-15.6,6.44c-5.74,1.32-11.48,2.02-17.17,2.02c-6.97,0-13.58-0.87-19.8-2.6c-6.22-1.74-11.68-4.4-16.38-7.93
		c-4.7-3.56-8.43-8.07-11.15-13.61c-2.74-5.52-4.09-12.07-4.09-19.6h15.68c0,5.24,1.01,9.75,3.05,13.53
		c2.04,3.78,4.7,6.89,8.01,9.33c3.3,2.44,7.17,4.26,11.59,5.4c4.42,1.18,8.96,1.74,13.61,1.74c3.72,0,7.48-0.34,11.26-1.04
		c3.78-0.7,7.17-1.88,10.19-3.58c3.02-1.68,5.46-3.98,7.31-6.89c1.85-2.91,2.8-6.64,2.8-11.15c0-4.31-1.12-7.79-3.39-10.47
		c-2.27-2.66-5.29-4.84-9.07-6.53c-3.78-1.68-8.04-3.05-12.83-4.09c-4.76-1.04-9.63-2.13-14.56-3.22c-4.93-1.09-9.8-2.38-14.56-3.84
		c-4.76-1.46-9.05-3.36-12.83-5.74c-3.78-2.38-6.81-5.46-9.07-9.24c-2.27-3.78-3.39-8.51-3.39-14.2c0-6.27,1.29-11.71,3.84-16.3
		s5.96-8.37,10.19-11.34s9.07-5.18,14.48-6.64c5.4-1.46,10.95-2.18,16.66-2.18c6.39,0,12.32,0.76,17.78,2.27s10.25,3.89,14.39,7.14
		c4.12,3.25,7.39,7.37,9.77,12.29c2.38,4.93,3.7,10.84,3.92,17.7h-15.68C368.13,61.89,364.88,55.39,359.37,51.39z"/>
	<path class="st0" d="M486.93,34.39v13.95h-69.4v39.57h64.69v13.95h-64.69v43.07h69.93v13.95h-86.48V34.36h85.95V34.39z"/>
	<path class="st0" d="M565.65,51.39c-5.52-4-12.57-6.02-21.17-6.02c-3.5,0-6.92,0.34-10.28,1.04s-6.36,1.85-8.99,3.5
		c-2.6,1.62-4.7,3.81-6.27,6.53c-1.57,2.74-2.35,6.13-2.35,10.19c0,3.84,1.12,6.95,3.39,9.33c2.27,2.38,5.29,4.34,9.07,5.85
		c3.78,1.51,8.04,2.77,12.83,3.75c4.76,0.98,9.61,2.07,14.56,3.22c4.93,1.18,9.8,2.52,14.56,4.09c4.76,1.57,9.05,3.7,12.83,6.36
		c3.78,2.69,6.81,6.05,9.07,10.11c2.27,4.06,3.39,9.19,3.39,15.35c0,6.64-1.48,12.29-4.45,17s-6.78,8.54-11.43,11.51
		c-4.65,2.97-9.86,5.12-15.6,6.44c-5.74,1.32-11.48,2.02-17.17,2.02c-6.97,0-13.58-0.87-19.8-2.6c-6.22-1.74-11.68-4.4-16.38-7.93
		c-4.7-3.56-8.43-8.07-11.15-13.61c-2.74-5.52-4.09-12.07-4.09-19.6h15.68c0,5.24,1.01,9.75,3.05,13.53
		c2.04,3.78,4.7,6.89,8.01,9.33c3.3,2.44,7.17,4.26,11.59,5.4c4.42,1.18,8.96,1.74,13.61,1.74c3.72,0,7.48-0.34,11.26-1.04
		c3.78-0.7,7.17-1.88,10.19-3.58c3.02-1.68,5.46-3.98,7.31-6.89c1.85-2.91,2.8-6.64,2.8-11.15c0-4.31-1.12-7.79-3.39-10.47
		c-2.27-2.66-5.29-4.84-9.07-6.53c-3.78-1.68-8.04-3.05-12.83-4.09c-4.76-1.04-9.63-2.13-14.56-3.22c-4.93-1.09-9.8-2.38-14.56-3.84
		c-4.76-1.46-9.05-3.36-12.83-5.74c-3.78-2.38-6.81-5.46-9.07-9.24c-2.27-3.78-3.39-8.51-3.39-14.2c0-6.27,1.29-11.71,3.84-16.3
		s5.96-8.37,10.19-11.34c4.23-2.97,9.07-5.18,14.48-6.64c5.4-1.46,10.95-2.18,16.66-2.18c6.39,0,12.32,0.76,17.78,2.27
		s10.25,3.89,14.39,7.14c4.12,3.25,7.39,7.37,9.77,12.29c2.38,4.93,3.7,10.84,3.92,17.7h-15.68
		C574.39,61.89,571.17,55.39,565.65,51.39z"/>
	<path class="st0" d="M663.55,34.39L712.2,158.9h-18.32l-13.61-37.5h-52.65l-13.95,37.5h-16.91l48.48-124.51H663.55z M675.06,107.45
		L654.31,49.4h-0.34l-21.09,58.05H675.06z"/>
	<path class="st0" d="M743.23,34.39l39.23,104.63l39.4-104.63h22.66V158.9h-15.68V55.34h-0.34L789.63,158.9h-14.11L736.65,55.34
		h-0.34V158.9h-15.68V34.39L743.23,34.39L743.23,34.39z"/>
	<path class="st0" d="M920.75,158.9h-16.58v-50.91l-48.11-73.57h19.72l37.3,59.29l36.43-59.29h18.82l-47.61,73.57v50.91H920.75z"/>
</g>
</svg>
